<svg width="25" height="25" viewBox="0 0 18 19" fill="none" xmlns="http://www.w3.org/2000/svg">
<path d="M17.9552 5.29327C17.913 4.33664 17.7583 3.67896 17.5367 3.10908C17.3081 2.50416 16.9564 1.96258 16.4956 1.51236C16.0454 1.05514 15.5002 0.699852 14.9023 0.474811C14.3291 0.253205 13.6748 0.0985068 12.7182 0.0563289C11.7544 0.0105788 11.4484 0 9.00399 0C6.55955 0 6.25358 0.0105788 5.29336 0.0527568C4.33672 0.0949348 3.67903 0.249771 3.10927 0.471239C2.50421 0.699852 1.96262 1.05156 1.51239 1.51236C1.05516 1.96258 0.700002 2.50773 0.47482 3.10564C0.25321 3.67896 0.0985086 4.33307 0.0563299 5.28969C0.010579 6.25347 0 6.55943 0 9.00383C0 11.4482 0.010579 11.7542 0.0527578 12.7144C0.0949365 13.671 0.249775 14.3287 0.471385 14.8986C0.700002 15.5035 1.05516 16.0451 1.51239 16.4953C1.96262 16.9525 2.50778 17.3078 3.1057 17.5328C3.67903 17.7545 4.33314 17.9092 5.28993 17.9513C6.25001 17.9936 6.55611 18.0041 9.00056 18.0041C11.445 18.0041 11.751 17.9936 12.7112 17.9513C13.6678 17.9092 14.3255 17.7545 14.8953 17.5328C16.1053 17.065 17.0619 16.1084 17.5297 14.8986C17.7512 14.3253 17.906 13.671 17.9482 12.7144C17.9904 11.7542 18.001 11.4482 18.001 9.00383C18.001 6.55943 17.9974 6.25347 17.9552 5.29327ZM16.3339 12.644C16.2951 13.5233 16.1474 13.9981 16.0243 14.3147C15.7218 15.099 15.0993 15.7215 14.3149 16.0241C13.9984 16.1472 13.5201 16.2948 12.6443 16.3335C11.6946 16.3758 11.4098 16.3862 9.00756 16.3862C6.6053 16.3862 6.31692 16.3758 5.37071 16.3335C4.49142 16.2948 4.0166 16.1472 3.70005 16.0241C3.30973 15.8798 2.95443 15.6512 2.66605 15.3522C2.36709 15.0603 2.13848 14.7086 1.99422 14.3183C1.87111 14.0017 1.72342 13.5233 1.68481 12.6476C1.6425 11.698 1.63206 11.4131 1.63206 9.01084C1.63206 6.60861 1.6425 6.32024 1.68481 5.37419C1.72342 4.49491 1.87111 4.0201 1.99422 3.70356C2.13848 3.3131 2.36709 2.95795 2.66963 2.66944C2.96144 2.37048 3.31316 2.14187 3.70362 1.99775C4.02017 1.87465 4.49856 1.72696 5.37429 1.68822C6.32393 1.64604 6.60887 1.63546 9.011 1.63546C11.4168 1.63546 11.7016 1.64604 12.6479 1.68822C13.5271 1.72696 14.002 1.87465 14.3185 1.99775C14.7088 2.14187 15.0641 2.37048 15.3525 2.66944C15.6515 2.96139 15.8801 3.3131 16.0243 3.70356C16.1474 4.0201 16.2951 4.49834 16.3339 5.37419C16.3761 6.32381 16.3866 6.60861 16.3866 9.01084C16.3866 11.4131 16.3761 11.6944 16.3339 12.644Z" fill="#2D2D2D"/>
<path d="M9.00403 4.37769C6.45062 4.37769 4.37891 6.44922 4.37891 9.0027C4.37891 11.5562 6.45062 13.6277 9.00403 13.6277C11.5576 13.6277 13.6292 11.5562 13.6292 9.0027C13.6292 6.44922 11.5576 4.37769 9.00403 4.37769ZM9.00403 12.0028C7.34751 12.0028 6.00383 10.6593 6.00383 9.0027C6.00383 7.34608 7.34751 6.00257 9.00403 6.00257C10.6607 6.00257 12.0042 7.34608 12.0042 9.0027C12.0042 10.6593 10.6607 12.0028 9.00403 12.0028Z" fill="#2D2D2D"/>
<path d="M14.8921 4.1939C14.8921 4.79025 14.4086 5.27378 13.8122 5.27378C13.2159 5.27378 12.7324 4.79025 12.7324 4.1939C12.7324 3.59741 13.2159 3.11401 13.8122 3.11401C14.4086 3.11401 14.8921 3.59741 14.8921 4.1939Z" fill="#2D2D2D"/>
</svg>
