<svg width="25" height="25" viewBox="0 0 21 14" fill="none" xmlns="http://www.w3.org/2000/svg">
<path d="M20.5673 2.19067C20.3253 1.33405 19.616 0.658786 18.7165 0.428126C17.0732 0 10.4998 0 10.4998 0C10.4998 0 3.92661 0 2.28329 0.411894C1.40107 0.64231 0.674452 1.33417 0.432459 2.19067C0 3.75525 0 7 0 7C0 7 0 10.2611 0.432459 11.8093C0.674708 12.6658 1.38377 13.3411 2.28342 13.5718C3.94392 14 10.5 14 10.5 14C10.5 14 17.0732 14 18.7165 13.5881C19.6161 13.3576 20.3253 12.6823 20.5676 11.8258C20.9999 10.2611 20.9999 7.01648 20.9999 7.01648C20.9999 7.01648 21.0172 3.75525 20.5673 2.19067ZM8.40694 9.99761V4.00239L13.873 7L8.40694 9.99761Z" fill="#2D2D2D"/>
</svg>
