<?xml version="1.0" encoding="utf-8"?>
<!-- Generator: Adobe Illustrator 25.4.1, SVG Export Plug-In . SVG Version: 6.00 Build 0)  -->
<svg version="1.1" id="Laag_1" xmlns="http://www.w3.org/2000/svg" xmlns:xlink="http://www.w3.org/1999/xlink" x="0px" y="0px"
	 viewBox="0 0 841.9 595.3" style="enable-background:new 0 0 841.9 595.3;" xml:space="preserve">
<style type="text/css">
	.st0{fill:#1E1E1C;}
</style>
<path class="st0" d="M983.6,320.2h5c0,0,0.9-3.6,2.5-6.6C987.9,314.7,985.2,317.1,983.6,320.2z M960.1,314.9l-1.6,5.3h15.4l1.1-3.3
	c-0.6,0-1,0-1.6,0c-0.5,0-1,0-1.5,0C965.9,316.8,962.4,315.8,960.1,314.9z M997.3,299.5c-0.5,0.1-1-0.3-1-0.8
	c-0.1-0.5,0.2-1,0.8-1.1c0.5-0.1,1,0.3,1,0.8S997.8,299.4,997.3,299.5z M1006.2,298.1c-2.4-0.8-6.4-1.5-6.4-1.5c-1-2.5-5.2-2-5.2-2
	c0.2-1.9-4.5-5.1-5.8-0.5c-3.7,0.3-11.2-0.7-14,2.8c-13.7,0.9-19.3,6.5-19.3,11.1c0,3.9,3.8,5.3,5.9,6.1c0.7,0.3,1.5,0.5,2.2,0.7
	c2,0.5,4.7,0.9,8.3,1c0.5,0,1,0,1.5,0c6.2,0,9.3-1.5,9.5-4.7c0.1-2.3-1.7-3.3-3-3.7c-0.6-0.2-1.5-0.3-1.6-0.3l0.7-2.2h2.1l-0.5,1.5
	c1.9,0.7,3.6,2.2,3.4,4.8c-0.2,3.1-2.5,5-6.9,5.6l-1.1,3.4h6.3c1.8-4.1,5.3-7.2,9.7-8.1c0.5-0.7,0.9-1.3,1.5-1.8
	c2.9-2.7,6.6-3,9.2-3.6c0.9-0.2,1.5-1.9,1.9-3.3c-2.1,1.1-4.2,0.2-4-0.6c0.4-1.8,3.3-2,4.5-0.1
	C1005,302.7,1007.3,298.5,1006.2,298.1z"/>
</svg>
