<?xml version="1.0" encoding="utf-8"?>
<!-- Generator: Adobe Illustrator 25.4.1, SVG Export Plug-In . SVG Version: 6.00 Build 0)  -->
<svg version="1.1" id="Laag_1" xmlns="http://www.w3.org/2000/svg" xmlns:xlink="http://www.w3.org/1999/xlink" x="0px" y="0px"
	 viewBox="0 0 179 29" style="enable-background:new 0 0 179 29;" xml:space="preserve">
<style type="text/css">
	.st0{fill:#1D1D1B;}
</style>
<path class="st0" d="M117.5,16.1c1.9-0.7,5.5-2.4,6.4-6.1c0.5-2,0.2-3.9-1-5.2c-1.5-1.7-4-1.8-6.3-1.8c-0.3,0-0.7,0-1,0H106
	l-6.6,25.2L97.3,3h-6.9l-14,22.6l-5-11L83.9,3h-7.5l-9.9,9.6L69,3.1h-6.2l-6.7,25.5h6.2l3-11.5l4.8,11.5h4.4h3.1h2.9l3.2-5.3h9
	l0.4,5.3h6.1h0.1h6.2l2.6-9.9h3.8c1.8,0,2.2,1,2.2,2.1c0,0.7,0,7.8,0,7.8h6v-7C120.2,19.7,120.4,16.9,117.5,16.1z M86.9,18.3L92,9.8
	l0.5,8.5H86.9z M115.5,13.1c-0.9,0.6-2,0.6-2.6,0.6h-3.6l1.5-5.9h3.2c1.5,0,2.5,0,3,0.5c0.3,0.2,0.8,0.8,0.4,2.2
	C117,12,116,12.8,115.5,13.1z"/>
<path class="st0" d="M142.1,3l-2.6,9.8h-8.2l2.6-9.8h-6.2L121,28.5h6.2l2.8-10.8h8.3l-2.8,10.8h6.2L148.3,3H142.1z"/>
<path class="st0" d="M166.3,3.1l-3.9,15c-0.6,2.4-1.1,3.3-1.8,4c-1.2,1.3-2.9,2-4.9,2c-1.7,0-2.8-0.4-3.3-1.1c-0.7-1-0.4-2.7,0-4.3
	l4.1-15.6h-6.2l-3.9,15c-0.6,2.4-1.1,4.4-0.3,6.3c1.4,4,5.9,4.6,8.5,4.6c5.3,0,11.7-2.6,13.6-10l4.2-15.9L166.3,3.1L166.3,3.1z"/>
<path class="st0" d="M176.6,7.6c-1.1,0-2-0.9-2-2.1s0.9-2.1,2-2.1s2,0.9,2,2.1S177.7,7.6,176.6,7.6z M174.2,5.5
	c0,1.4,1.1,2.5,2.4,2.5c1.3,0,2.4-1.1,2.4-2.5S177.9,3,176.6,3S174.2,4.1,174.2,5.5z M176.1,5.4V4.5h0.6c0.3,0,0.6,0,0.6,0.4
	s-0.3,0.5-0.7,0.5H176.1L176.1,5.4z M175.6,7h0.4V5.8h0.5l0.8,1.2h0.4l-0.8-1.3c0.4,0,0.8-0.3,0.8-0.8c0-0.6-0.3-0.9-1-0.9h-1.1
	L175.6,7L175.6,7z"/>
<path class="st0" d="M28.1,28.5h5c0,0,0.9-3.6,2.5-6.6C32.4,23,29.7,25.4,28.1,28.5z M4.6,23.2L3,28.5h15.4l1.1-3.3
	c-0.6,0-1,0-1.6,0c-0.5,0-1,0-1.5,0C10.4,25.1,6.9,24.1,4.6,23.2z M41.8,7.8c-0.5,0.1-1-0.3-1-0.8c-0.1-0.5,0.2-1,0.8-1.1
	c0.5-0.1,1,0.3,1,0.8S42.3,7.7,41.8,7.8z M50.7,6.4c-2.4-0.8-6.4-1.5-6.4-1.5c-1-2.5-5.2-2-5.2-2c0.2-1.9-4.5-5.1-5.8-0.5
	c-3.7,0.3-11.2-0.7-14,2.8C5.6,6.1,0,11.7,0,16.3c0,3.9,3.8,5.3,5.9,6.1c0.7,0.3,1.5,0.5,2.2,0.7c2,0.5,4.7,0.9,8.3,1
	c0.5,0,1,0,1.5,0c6.2,0,9.3-1.5,9.5-4.7c0.1-2.3-1.7-3.3-3-3.7c-0.6-0.2-1.5-0.3-1.6-0.3l0.7-2.2h2.1l-0.5,1.5
	c1.9,0.7,3.6,2.2,3.4,4.8c-0.2,3.1-2.5,5-6.9,5.6l-1.1,3.4h6.3c1.8-4.1,5.3-7.2,9.7-8.1c0.5-0.7,0.9-1.3,1.5-1.8
	c2.9-2.7,6.6-3,9.2-3.6c0.9-0.2,1.5-1.9,1.9-3.3c-2.1,1.1-4.2,0.2-4-0.6c0.4-1.8,3.3-2,4.5-0.1C49.5,11,51.8,6.8,50.7,6.4z"/>
</svg>
